<?xml version="1.0" encoding="utf-8"?>
<!-- Generator: Adobe Illustrator 26.0.1, SVG Export Plug-In . SVG Version: 6.00 Build 0)  -->
<svg version="1.1" id="Layer_1" xmlns="http://www.w3.org/2000/svg" xmlns:xlink="http://www.w3.org/1999/xlink" x="0px" y="0px"
	 viewBox="0 0 546 546" style="enable-background:new 0 0 546 546;" xml:space="preserve">
<style type="text/css">
	.st0{fill:#EAEAEA;}
	.st1{fill:#FFFFFF;}
</style>
<g>
	<circle class="st0" cx="273" cy="273" r="273"/>
	<g>
		<circle cx="273" cy="273" r="263.5"/>
	</g>
	<g>
		<path class="st0" d="M171.7,85.9l7.4-0.7l3.8,38.6c1.5,15.3-5.6,20.8-15.5,21.7c-2.7,0.3-6.1,0-8.1-0.6l0.5-6.2
			c1.6,0.4,3.9,0.7,6.4,0.5c6.7-0.7,10.3-4,9.2-15.3L171.7,85.9z"/>
		<path class="st0" d="M243.2,118.2c0.7,15.4-9.6,22.6-19.7,23.1c-11.3,0.5-20.3-7.3-20.9-20.4c-0.7-13.9,8.1-22.5,19.6-23.1
			C234.1,97.2,242.6,105.5,243.2,118.2z M210.3,120.2c0.4,9.1,6,15.7,13.4,15.4c7.2-0.3,12.3-7.4,11.9-16.7
			c-0.3-7-4.3-15.8-13.2-15.4C213.4,103.9,209.9,112.3,210.3,120.2z"/>
		<path class="st0" d="M298.2,128.1c0,4.3,0,8.1,0.2,11.4l-6.7-0.1l-0.4-6.8l-0.2,0c-2,3.3-6.5,7.7-13.8,7.6
			c-6.5-0.1-14.3-3.8-14.2-18.4l0.3-24.3l7.6,0.1l-0.3,23c-0.1,7.9,2.3,13.3,9.1,13.4c5.1,0.1,8.6-3.4,10.1-6.8
			c0.4-1.1,0.7-2.5,0.7-3.9l0.3-25.5l7.6,0.1L298.2,128.1z"/>
		<path class="st0" d="M323.7,79.6l7.6,0.4l-3.4,61l-7.6-0.4L323.7,79.6z"/>
		<path class="st0" d="M356.3,123.6c-0.8,10.2,5.2,15,12.8,15.8c5.4,0.5,8.7-0.1,11.7-1l0.7,5.5c-2.8,0.9-7.4,1.9-14,1.2
			c-12.8-1.3-19.5-10.4-18.3-22.9c1.2-12.5,9.6-21.6,21.6-20.4c13.5,1.3,15.9,13.6,15.2,21.2c-0.2,1.5-0.4,2.7-0.6,3.5L356.3,123.6z
			 M379,120.4c0.6-4.8-0.8-12.4-9.2-13.3c-7.6-0.8-11.7,5.9-12.8,11.1L379,120.4z"/>
	</g>
	<g>
		<path class="st0" d="M243.7,435.2c-1.3,19.9-14,29.7-28.8,28.8c-15.3-1-25.3-13.5-24.2-31c1.2-18.4,13.3-29.7,28.8-28.7
			C235.3,405.3,244.8,418,243.7,435.2z M198.7,433.3c-0.8,12.4,5.2,23.9,17,24.6c11.8,0.7,19.2-9.7,20.1-22.9
			c0.7-11.5-4.5-23.9-17-24.7C206.4,409.6,199.5,420.6,198.7,433.3z"/>
		<path class="st0" d="M263.9,434.7c0-4.3-0.1-7.8-0.4-11.3l6.7,0l0.5,6.9l0.2,0c2-4,6.8-7.9,13.7-7.9c5.8,0,14.7,3.4,14.8,17.6
			l0.1,24.9l-7.6,0l-0.1-24c0-6.7-2.6-12.3-9.7-12.2c-5,0-8.8,3.6-10.1,7.8c-0.3,0.9-0.5,2.2-0.5,3.5l0.1,25l-7.6,0L263.9,434.7z"/>
		<path class="st0" d="M327.2,444.2c0.8,10.2,7.6,14,15.2,13.5c5.4-0.4,8.6-1.5,11.4-2.9l1.6,5.3c-2.6,1.4-7,3-13.6,3.5
			c-12.8,0.8-21-7.1-21.8-19.6c-0.8-12.5,5.9-22.9,18-23.7c13.6-0.9,17.9,10.8,18.4,18.4c0.1,1.5,0,2.8,0,3.5L327.2,444.2z
			 M349,437.4c-0.2-4.8-2.8-12.1-11.3-11.6c-7.6,0.5-10.5,7.8-10.8,13L349,437.4z"/>
	</g>
	<g>
		<path class="st1" d="M237.6,223c-7.6,9-15,25.9-22.4,51.2h-17.5c13.5-45.6,24.7-55.2,31.7-55.2C231.8,218.9,234.5,220,237.6,223z"
			/>
		<path class="st1" d="M323.4,335.6c-1.5,0.7-3.1,1-4.6,1c-1.6,0-3.2-0.4-4.9-1.1c1.6,0.7,3.2,1,4.9,1
			C320.3,336.6,321.9,336.3,323.4,335.6z"/>
		<path class="st1" d="M350.5,277.8c-13.5,45.6-24.7,55.2-31.7,55.2c-2.3,0-5.1-1-8.2-4c7.6-9,15-25.9,22.4-51.2H350.5z"/>
		<path class="st1" d="M367.4,274.2H286c-11.6-39.5-23.2-58.7-35.4-58.7c-3.6,0-7.1,1.7-10.6,5c0,0-0.1,0.1-0.1,0.1
			c-0.3-0.3-0.5-0.5-0.8-0.8c-1.7-1.5-3.4-2.7-5-3.4c0,0,0,0-0.1,0c-1.5-0.7-3.1-1-4.6-1c-1.5,0-3.1,0.3-4.6,1c0,0,0,0,0,0
			c-10.5,4.3-20.6,23.3-30.8,57.8h-13.6c-0.6,0-1.2,0.8-1.2,1.8c0,1,0.5,1.8,1.2,1.8h81.7c11.6,39.5,23.2,58.7,35.4,58.7
			c3.6,0,7.1-1.7,10.6-5c0,0,0.1-0.1,0.1-0.1c1.8,1.8,3.7,3.2,5.5,4c0,0,0,0,0.1,0c0,0,0,0,0,0c1.6,0.7,3.2,1,4.9,1
			c1.5,0,3.1-0.3,4.6-0.9c0,0,0.1,0,0.1,0c10.5-4.3,20.6-23.4,30.7-57.8h13.3c0.6,0,1.2-0.8,1.2-1.8
			C368.6,275,368.1,274.2,367.4,274.2z M197.7,274.2c13.5-45.6,24.7-55.2,31.7-55.2c2.3,0,5.1,1,8.2,4c-7.6,9-15,25.9-22.4,51.2
			H197.7z M218.9,274.2c8-26.9,15.1-41.3,21.1-48.6c6,7.3,13.1,21.7,21.1,48.6H218.9z M242.4,223c3.1-3,5.9-4,8.2-4
			c7.1,0,18.2,9.7,31.7,55.2h-17.5C257.4,248.9,250,231.9,242.4,223z M297.6,333.1c-7.1,0-18.2-9.7-31.7-55.2h17.5
			c7.4,25.3,14.8,42.2,22.4,51.2C302.7,332,299.9,333.1,297.6,333.1z M308.2,326.4c-6-7.3-13.1-21.7-21.1-48.6h42.2
			C321.3,304.8,314.2,319.2,308.2,326.4z M318.8,333.1c-2.3,0-5.1-1-8.2-4c7.6-9,15-25.9,22.4-51.2h17.5
			C337,323.4,325.9,333.1,318.8,333.1z"/>
		<path class="st1" d="M313.8,335.5c-1.9-0.8-3.8-2.1-5.6-3.9c0,0,0.1-0.1,0.1-0.1C310.2,333.3,312,334.6,313.8,335.5z"/>
	</g>
</g>
</svg>
